./D <mxfile host="app.diagrams.net" modified="2023-12-23T08:58:51.950Z" agent="Mozilla/5.0 (Windows NT 10.0; Win64; x64) AppleWebKit/537.36 (KHTML, like Gecko) Chrome/120.0.0.0 Safari/537.36" etag="yI1RRGYDOJTUEdPGL3r-" version="22.1.11" type="device">
  <diagram name="Page-1" id="SK4doV4JnSKOURl87zc1">
    <mxGraphModel dx="1976" dy="1200" grid="1" gridSize="10" guides="1" tooltips="1" connect="1" arrows="1" fold="1" page="1" pageScale="1" pageWidth="850" pageHeight="1100" math="0" shadow="0">
      <root>
        <mxCell id="0" />
        <mxCell id="1" parent="0" />
        <mxCell id="ewP6cw99ofhOVeks-hL4-38" style="edgeStyle=orthogonalEdgeStyle;rounded=0;orthogonalLoop=1;jettySize=auto;html=1;exitX=1;exitY=0.5;exitDx=0;exitDy=0;" edge="1" parent="1" source="ewP6cw99ofhOVeks-hL4-2">
          <mxGeometry relative="1" as="geometry">
            <mxPoint x="230" y="280" as="targetPoint" />
          </mxGeometry>
        </mxCell>
        <mxCell id="ewP6cw99ofhOVeks-hL4-40" style="edgeStyle=orthogonalEdgeStyle;rounded=0;orthogonalLoop=1;jettySize=auto;html=1;exitX=0.5;exitY=0;exitDx=0;exitDy=0;entryX=0.5;entryY=1;entryDx=0;entryDy=0;" edge="1" parent="1" source="ewP6cw99ofhOVeks-hL4-2" target="ewP6cw99ofhOVeks-hL4-28">
          <mxGeometry relative="1" as="geometry" />
        </mxCell>
        <mxCell id="ewP6cw99ofhOVeks-hL4-2" value="PLUTOSDR" style="rounded=1;whiteSpace=wrap;html=1;" vertex="1" parent="1">
          <mxGeometry x="30" y="250" width="120" height="60" as="geometry" />
        </mxCell>
        <mxCell id="ewP6cw99ofhOVeks-hL4-32" style="edgeStyle=orthogonalEdgeStyle;rounded=0;orthogonalLoop=1;jettySize=auto;html=1;exitX=1;exitY=0.5;exitDx=0;exitDy=0;entryX=1;entryY=0.5;entryDx=0;entryDy=0;" edge="1" parent="1" source="ewP6cw99ofhOVeks-hL4-3" target="ewP6cw99ofhOVeks-hL4-3">
          <mxGeometry relative="1" as="geometry" />
        </mxCell>
        <mxCell id="ewP6cw99ofhOVeks-hL4-34" style="edgeStyle=orthogonalEdgeStyle;rounded=0;orthogonalLoop=1;jettySize=auto;html=1;exitX=1;exitY=0.5;exitDx=0;exitDy=0;entryX=0;entryY=0.5;entryDx=0;entryDy=0;" edge="1" parent="1" source="ewP6cw99ofhOVeks-hL4-3" target="ewP6cw99ofhOVeks-hL4-12">
          <mxGeometry relative="1" as="geometry" />
        </mxCell>
        <mxCell id="ewP6cw99ofhOVeks-hL4-37" style="edgeStyle=orthogonalEdgeStyle;rounded=0;orthogonalLoop=1;jettySize=auto;html=1;exitX=0;exitY=0.5;exitDx=0;exitDy=0;entryX=1;entryY=0.5;entryDx=0;entryDy=0;" edge="1" parent="1" source="ewP6cw99ofhOVeks-hL4-3" target="ewP6cw99ofhOVeks-hL4-2">
          <mxGeometry relative="1" as="geometry" />
        </mxCell>
        <mxCell id="ewP6cw99ofhOVeks-hL4-69" style="edgeStyle=orthogonalEdgeStyle;rounded=0;orthogonalLoop=1;jettySize=auto;html=1;exitX=0.5;exitY=0;exitDx=0;exitDy=0;entryX=0.5;entryY=1;entryDx=0;entryDy=0;" edge="1" parent="1" source="ewP6cw99ofhOVeks-hL4-3" target="ewP6cw99ofhOVeks-hL4-5">
          <mxGeometry relative="1" as="geometry" />
        </mxCell>
        <mxCell id="ewP6cw99ofhOVeks-hL4-71" style="edgeStyle=orthogonalEdgeStyle;rounded=0;orthogonalLoop=1;jettySize=auto;html=1;exitX=0.5;exitY=1;exitDx=0;exitDy=0;" edge="1" parent="1" source="ewP6cw99ofhOVeks-hL4-3">
          <mxGeometry relative="1" as="geometry">
            <mxPoint x="240" y="340" as="targetPoint" />
          </mxGeometry>
        </mxCell>
        <mxCell id="ewP6cw99ofhOVeks-hL4-3" value="MQTT BROKER" style="rounded=1;whiteSpace=wrap;html=1;" vertex="1" parent="1">
          <mxGeometry x="180" y="250" width="120" height="60" as="geometry" />
        </mxCell>
        <mxCell id="ewP6cw99ofhOVeks-hL4-70" style="edgeStyle=orthogonalEdgeStyle;rounded=0;orthogonalLoop=1;jettySize=auto;html=1;exitX=0.5;exitY=0;exitDx=0;exitDy=0;entryX=0.5;entryY=1;entryDx=0;entryDy=0;" edge="1" parent="1" source="ewP6cw99ofhOVeks-hL4-4" target="ewP6cw99ofhOVeks-hL4-3">
          <mxGeometry relative="1" as="geometry" />
        </mxCell>
        <mxCell id="ewP6cw99ofhOVeks-hL4-4" value="MODULATOR&lt;br&gt;PLUTO_STREAM" style="rounded=1;whiteSpace=wrap;html=1;" vertex="1" parent="1">
          <mxGeometry x="180" y="340" width="120" height="60" as="geometry" />
        </mxCell>
        <mxCell id="ewP6cw99ofhOVeks-hL4-53" style="edgeStyle=orthogonalEdgeStyle;rounded=0;orthogonalLoop=1;jettySize=auto;html=1;exitX=1;exitY=0.25;exitDx=0;exitDy=0;entryX=0.16;entryY=0.55;entryDx=0;entryDy=0;entryPerimeter=0;" edge="1" parent="1" source="ewP6cw99ofhOVeks-hL4-5" target="ewP6cw99ofhOVeks-hL4-55">
          <mxGeometry relative="1" as="geometry">
            <mxPoint x="370" y="370" as="targetPoint" />
          </mxGeometry>
        </mxCell>
        <mxCell id="ewP6cw99ofhOVeks-hL4-56" value="TS stream" style="edgeLabel;html=1;align=center;verticalAlign=middle;resizable=0;points=[];" vertex="1" connectable="0" parent="ewP6cw99ofhOVeks-hL4-53">
          <mxGeometry x="-0.2341" y="2" relative="1" as="geometry">
            <mxPoint x="13" y="27" as="offset" />
          </mxGeometry>
        </mxCell>
        <mxCell id="ewP6cw99ofhOVeks-hL4-68" style="edgeStyle=orthogonalEdgeStyle;rounded=0;orthogonalLoop=1;jettySize=auto;html=1;exitX=0.5;exitY=1;exitDx=0;exitDy=0;entryX=0.5;entryY=0;entryDx=0;entryDy=0;" edge="1" parent="1" source="ewP6cw99ofhOVeks-hL4-5" target="ewP6cw99ofhOVeks-hL4-3">
          <mxGeometry relative="1" as="geometry" />
        </mxCell>
        <mxCell id="ewP6cw99ofhOVeks-hL4-75" style="edgeStyle=orthogonalEdgeStyle;rounded=0;orthogonalLoop=1;jettySize=auto;html=1;exitX=0.5;exitY=0;exitDx=0;exitDy=0;entryX=0.5;entryY=1;entryDx=0;entryDy=0;" edge="1" parent="1" source="ewP6cw99ofhOVeks-hL4-5" target="ewP6cw99ofhOVeks-hL4-58">
          <mxGeometry relative="1" as="geometry" />
        </mxCell>
        <mxCell id="ewP6cw99ofhOVeks-hL4-5" value="LONGMYND" style="rounded=1;whiteSpace=wrap;html=1;" vertex="1" parent="1">
          <mxGeometry x="180" y="160" width="120" height="60" as="geometry" />
        </mxCell>
        <mxCell id="ewP6cw99ofhOVeks-hL4-24" style="edgeStyle=orthogonalEdgeStyle;rounded=0;orthogonalLoop=1;jettySize=auto;html=1;exitX=0.5;exitY=1;exitDx=0;exitDy=0;entryX=0.5;entryY=0;entryDx=0;entryDy=0;" edge="1" parent="1" source="ewP6cw99ofhOVeks-hL4-11" target="ewP6cw99ofhOVeks-hL4-15">
          <mxGeometry relative="1" as="geometry" />
        </mxCell>
        <mxCell id="ewP6cw99ofhOVeks-hL4-30" style="edgeStyle=orthogonalEdgeStyle;rounded=0;orthogonalLoop=1;jettySize=auto;html=1;exitX=0;exitY=0.5;exitDx=0;exitDy=0;entryX=1;entryY=0.5;entryDx=0;entryDy=0;" edge="1" parent="1" source="ewP6cw99ofhOVeks-hL4-11" target="ewP6cw99ofhOVeks-hL4-12">
          <mxGeometry relative="1" as="geometry" />
        </mxCell>
        <mxCell id="ewP6cw99ofhOVeks-hL4-77" style="edgeStyle=orthogonalEdgeStyle;rounded=0;orthogonalLoop=1;jettySize=auto;html=1;exitX=0.5;exitY=0;exitDx=0;exitDy=0;entryX=0.5;entryY=0;entryDx=0;entryDy=0;" edge="1" parent="1" source="ewP6cw99ofhOVeks-hL4-11" target="ewP6cw99ofhOVeks-hL4-28">
          <mxGeometry relative="1" as="geometry">
            <Array as="points">
              <mxPoint x="540" y="30" />
              <mxPoint x="90" y="30" />
            </Array>
          </mxGeometry>
        </mxCell>
        <mxCell id="ewP6cw99ofhOVeks-hL4-11" value="DATV-RED" style="rounded=1;whiteSpace=wrap;html=1;" vertex="1" parent="1">
          <mxGeometry x="480" y="250" width="120" height="60" as="geometry" />
        </mxCell>
        <mxCell id="ewP6cw99ofhOVeks-hL4-31" style="edgeStyle=orthogonalEdgeStyle;rounded=0;orthogonalLoop=1;jettySize=auto;html=1;exitX=1;exitY=0.5;exitDx=0;exitDy=0;entryX=0;entryY=0.5;entryDx=0;entryDy=0;" edge="1" parent="1" source="ewP6cw99ofhOVeks-hL4-12" target="ewP6cw99ofhOVeks-hL4-11">
          <mxGeometry relative="1" as="geometry" />
        </mxCell>
        <mxCell id="ewP6cw99ofhOVeks-hL4-33" style="edgeStyle=orthogonalEdgeStyle;rounded=0;orthogonalLoop=1;jettySize=auto;html=1;exitX=0;exitY=0.5;exitDx=0;exitDy=0;entryX=1;entryY=0.5;entryDx=0;entryDy=0;" edge="1" parent="1" source="ewP6cw99ofhOVeks-hL4-12" target="ewP6cw99ofhOVeks-hL4-3">
          <mxGeometry relative="1" as="geometry" />
        </mxCell>
        <mxCell id="ewP6cw99ofhOVeks-hL4-12" value="MQTT CLIENT" style="rounded=1;whiteSpace=wrap;html=1;" vertex="1" parent="1">
          <mxGeometry x="330" y="250" width="120" height="60" as="geometry" />
        </mxCell>
        <mxCell id="ewP6cw99ofhOVeks-hL4-65" style="edgeStyle=orthogonalEdgeStyle;rounded=0;orthogonalLoop=1;jettySize=auto;html=1;exitX=0.5;exitY=0;exitDx=0;exitDy=0;entryX=0.5;entryY=1;entryDx=0;entryDy=0;" edge="1" parent="1" source="ewP6cw99ofhOVeks-hL4-15" target="ewP6cw99ofhOVeks-hL4-11">
          <mxGeometry relative="1" as="geometry" />
        </mxCell>
        <mxCell id="ewP6cw99ofhOVeks-hL4-72" style="edgeStyle=orthogonalEdgeStyle;rounded=0;orthogonalLoop=1;jettySize=auto;html=1;exitX=0;exitY=0.5;exitDx=0;exitDy=0;" edge="1" parent="1" source="ewP6cw99ofhOVeks-hL4-15" target="ewP6cw99ofhOVeks-hL4-4">
          <mxGeometry relative="1" as="geometry" />
        </mxCell>
        <mxCell id="ewP6cw99ofhOVeks-hL4-15" value="ENCODER&lt;br&gt;FFMPEG" style="rounded=1;whiteSpace=wrap;html=1;" vertex="1" parent="1">
          <mxGeometry x="480" y="340" width="120" height="60" as="geometry" />
        </mxCell>
        <mxCell id="ewP6cw99ofhOVeks-hL4-22" style="edgeStyle=orthogonalEdgeStyle;rounded=0;orthogonalLoop=1;jettySize=auto;html=1;exitX=1;exitY=0.5;exitDx=0;exitDy=0;entryX=0.167;entryY=0.983;entryDx=0;entryDy=0;entryPerimeter=0;" edge="1" parent="1" source="ewP6cw99ofhOVeks-hL4-17" target="ewP6cw99ofhOVeks-hL4-15">
          <mxGeometry relative="1" as="geometry" />
        </mxCell>
        <mxCell id="ewP6cw99ofhOVeks-hL4-17" value="&lt;b&gt;UDP &lt;/b&gt;any IP or PORT&lt;br&gt;Video and Audio" style="rounded=1;whiteSpace=wrap;html=1;" vertex="1" parent="1">
          <mxGeometry x="305" y="450" width="120" height="60" as="geometry" />
        </mxCell>
        <mxCell id="ewP6cw99ofhOVeks-hL4-18" value="&lt;b&gt;RTMP &lt;/b&gt;any IP or PORT&lt;br&gt;Video and Audio" style="rounded=1;whiteSpace=wrap;html=1;" vertex="1" parent="1">
          <mxGeometry x="305" y="520" width="120" height="60" as="geometry" />
        </mxCell>
        <mxCell id="ewP6cw99ofhOVeks-hL4-19" value="&lt;b&gt;DSHOW&lt;br&gt;&lt;/b&gt;(OBS VIRTUAL CAM &amp;amp; VB CABLE/VMIX etc..)" style="rounded=1;whiteSpace=wrap;html=1;" vertex="1" parent="1">
          <mxGeometry x="305" y="590" width="120" height="60" as="geometry" />
        </mxCell>
        <mxCell id="ewP6cw99ofhOVeks-hL4-44" style="edgeStyle=orthogonalEdgeStyle;rounded=0;orthogonalLoop=1;jettySize=auto;html=1;exitX=1;exitY=0.5;exitDx=0;exitDy=0;entryX=0;entryY=0.5;entryDx=0;entryDy=0;" edge="1" parent="1" target="ewP6cw99ofhOVeks-hL4-17">
          <mxGeometry relative="1" as="geometry">
            <mxPoint x="205" y="550" as="sourcePoint" />
          </mxGeometry>
        </mxCell>
        <mxCell id="ewP6cw99ofhOVeks-hL4-45" style="edgeStyle=orthogonalEdgeStyle;rounded=0;orthogonalLoop=1;jettySize=auto;html=1;exitX=1;exitY=0.5;exitDx=0;exitDy=0;entryX=0;entryY=0.5;entryDx=0;entryDy=0;" edge="1" parent="1" target="ewP6cw99ofhOVeks-hL4-18">
          <mxGeometry relative="1" as="geometry">
            <mxPoint x="205" y="550" as="sourcePoint" />
          </mxGeometry>
        </mxCell>
        <mxCell id="ewP6cw99ofhOVeks-hL4-46" style="edgeStyle=orthogonalEdgeStyle;rounded=0;orthogonalLoop=1;jettySize=auto;html=1;exitX=1;exitY=0.5;exitDx=0;exitDy=0;entryX=0;entryY=0.5;entryDx=0;entryDy=0;" edge="1" parent="1" target="ewP6cw99ofhOVeks-hL4-19">
          <mxGeometry relative="1" as="geometry">
            <mxPoint x="205" y="550" as="sourcePoint" />
          </mxGeometry>
        </mxCell>
        <mxCell id="ewP6cw99ofhOVeks-hL4-20" value="OBS" style="rounded=1;whiteSpace=wrap;html=1;" vertex="1" parent="1">
          <mxGeometry x="145" y="520" width="120" height="60" as="geometry" />
        </mxCell>
        <mxCell id="ewP6cw99ofhOVeks-hL4-21" value="" style="endArrow=classic;html=1;rounded=0;entryX=0.5;entryY=1;entryDx=0;entryDy=0;exitX=1;exitY=0.5;exitDx=0;exitDy=0;" edge="1" parent="1" source="ewP6cw99ofhOVeks-hL4-18" target="ewP6cw99ofhOVeks-hL4-15">
          <mxGeometry width="50" height="50" relative="1" as="geometry">
            <mxPoint x="510" y="680" as="sourcePoint" />
            <mxPoint x="320" y="460" as="targetPoint" />
            <Array as="points">
              <mxPoint x="540" y="550" />
            </Array>
          </mxGeometry>
        </mxCell>
        <mxCell id="ewP6cw99ofhOVeks-hL4-23" style="edgeStyle=orthogonalEdgeStyle;rounded=0;orthogonalLoop=1;jettySize=auto;html=1;exitX=1;exitY=0.5;exitDx=0;exitDy=0;entryX=0.842;entryY=0.983;entryDx=0;entryDy=0;entryPerimeter=0;" edge="1" parent="1" source="ewP6cw99ofhOVeks-hL4-19" target="ewP6cw99ofhOVeks-hL4-15">
          <mxGeometry relative="1" as="geometry" />
        </mxCell>
        <mxCell id="ewP6cw99ofhOVeks-hL4-39" style="edgeStyle=orthogonalEdgeStyle;rounded=0;orthogonalLoop=1;jettySize=auto;html=1;exitX=0.5;exitY=1;exitDx=0;exitDy=0;" edge="1" parent="1" source="ewP6cw99ofhOVeks-hL4-28" target="ewP6cw99ofhOVeks-hL4-2">
          <mxGeometry relative="1" as="geometry" />
        </mxCell>
        <mxCell id="ewP6cw99ofhOVeks-hL4-76" style="edgeStyle=orthogonalEdgeStyle;rounded=0;orthogonalLoop=1;jettySize=auto;html=1;exitX=0.5;exitY=0;exitDx=0;exitDy=0;" edge="1" parent="1" source="ewP6cw99ofhOVeks-hL4-28" target="ewP6cw99ofhOVeks-hL4-11">
          <mxGeometry relative="1" as="geometry">
            <Array as="points">
              <mxPoint x="90" y="30" />
              <mxPoint x="540" y="30" />
            </Array>
          </mxGeometry>
        </mxCell>
        <mxCell id="ewP6cw99ofhOVeks-hL4-28" value="Pluto RX port &lt;br&gt;FFT_IO (WS)" style="rounded=1;whiteSpace=wrap;html=1;" vertex="1" parent="1">
          <mxGeometry x="30" y="160" width="120" height="60" as="geometry" />
        </mxCell>
        <mxCell id="ewP6cw99ofhOVeks-hL4-43" value="&lt;h1&gt;DATV-RED&lt;/h1&gt;&lt;div&gt;Controls the PlutoSDR with MQTT commands.&lt;/div&gt;&lt;div&gt;&lt;br&gt;&lt;/div&gt;&lt;div&gt;Sends configured FFMPEG streams to pluto_stream process on PlutoSDR for processing with FPGA for transmission.&lt;/div&gt;&lt;div&gt;&lt;br&gt;&lt;/div&gt;&lt;div&gt;We get the Longmynd TS stream from the 230.0.0.2:1234 multicast address and set the HOST IP that receives it.&lt;/div&gt;&lt;div&gt;&lt;br&gt;&lt;/div&gt;&lt;div&gt;Giving us a full-duplex solution&lt;/div&gt;&lt;div&gt;for mobile and portable use&lt;/div&gt;&lt;div&gt;&lt;br&gt;&lt;/div&gt;&lt;div&gt;&lt;br&gt;&lt;/div&gt;" style="text;html=1;strokeColor=none;fillColor=none;spacing=5;spacingTop=-20;whiteSpace=wrap;overflow=hidden;rounded=0;" vertex="1" parent="1">
          <mxGeometry x="630" y="90" width="190" height="270" as="geometry" />
        </mxCell>
        <mxCell id="ewP6cw99ofhOVeks-hL4-79" style="edgeStyle=orthogonalEdgeStyle;rounded=0;orthogonalLoop=1;jettySize=auto;html=1;exitX=1;exitY=0.5;exitDx=0;exitDy=0;entryX=0.5;entryY=1;entryDx=0;entryDy=0;" edge="1" parent="1" source="ewP6cw99ofhOVeks-hL4-47" target="ewP6cw99ofhOVeks-hL4-20">
          <mxGeometry relative="1" as="geometry" />
        </mxCell>
        <mxCell id="ewP6cw99ofhOVeks-hL4-47" value="Microphone" style="rounded=1;whiteSpace=wrap;html=1;" vertex="1" parent="1">
          <mxGeometry x="20" y="620" width="120" height="60" as="geometry" />
        </mxCell>
        <mxCell id="ewP6cw99ofhOVeks-hL4-82" style="edgeStyle=orthogonalEdgeStyle;rounded=0;orthogonalLoop=1;jettySize=auto;html=1;exitX=1;exitY=0.5;exitDx=0;exitDy=0;entryX=0.5;entryY=1;entryDx=0;entryDy=0;" edge="1" parent="1" source="ewP6cw99ofhOVeks-hL4-49" target="ewP6cw99ofhOVeks-hL4-20">
          <mxGeometry relative="1" as="geometry" />
        </mxCell>
        <mxCell id="ewP6cw99ofhOVeks-hL4-49" value="Other inputs" style="rounded=1;whiteSpace=wrap;html=1;" vertex="1" parent="1">
          <mxGeometry x="20" y="760" width="120" height="60" as="geometry" />
        </mxCell>
        <mxCell id="ewP6cw99ofhOVeks-hL4-55" value="Local network&lt;br&gt;230.0.0.2:1234&lt;br&gt;or Host IP" style="ellipse;shape=cloud;whiteSpace=wrap;html=1;" vertex="1" parent="1">
          <mxGeometry x="360" y="60" width="150" height="90" as="geometry" />
        </mxCell>
        <mxCell id="ewP6cw99ofhOVeks-hL4-74" style="edgeStyle=orthogonalEdgeStyle;rounded=0;orthogonalLoop=1;jettySize=auto;html=1;exitX=0.5;exitY=1;exitDx=0;exitDy=0;" edge="1" parent="1" source="ewP6cw99ofhOVeks-hL4-58" target="ewP6cw99ofhOVeks-hL4-5">
          <mxGeometry relative="1" as="geometry" />
        </mxCell>
        <mxCell id="ewP6cw99ofhOVeks-hL4-58" value="Minitiouner radio" style="rounded=1;whiteSpace=wrap;html=1;" vertex="1" parent="1">
          <mxGeometry x="180" y="60" width="120" height="60" as="geometry" />
        </mxCell>
        <mxCell id="ewP6cw99ofhOVeks-hL4-61" value="" style="verticalLabelPosition=bottom;shadow=0;dashed=0;align=center;html=1;verticalAlign=top;shape=mxgraph.electrical.radio.aerial_-_antenna_1;" vertex="1" parent="1">
          <mxGeometry x="70" y="330" width="30" height="40" as="geometry" />
        </mxCell>
        <mxCell id="ewP6cw99ofhOVeks-hL4-73" value="" style="endArrow=none;html=1;rounded=0;entryX=0.5;entryY=1;entryDx=0;entryDy=0;entryPerimeter=0;" edge="1" parent="1" source="ewP6cw99ofhOVeks-hL4-4" target="ewP6cw99ofhOVeks-hL4-61">
          <mxGeometry width="50" height="50" relative="1" as="geometry">
            <mxPoint x="390" y="610" as="sourcePoint" />
            <mxPoint x="440" y="560" as="targetPoint" />
          </mxGeometry>
        </mxCell>
        <mxCell id="ewP6cw99ofhOVeks-hL4-81" style="edgeStyle=orthogonalEdgeStyle;rounded=0;orthogonalLoop=1;jettySize=auto;html=1;exitX=1;exitY=0.5;exitDx=0;exitDy=0;entryX=0.5;entryY=1;entryDx=0;entryDy=0;" edge="1" parent="1" source="ewP6cw99ofhOVeks-hL4-48" target="ewP6cw99ofhOVeks-hL4-20">
          <mxGeometry relative="1" as="geometry" />
        </mxCell>
        <mxCell id="ewP6cw99ofhOVeks-hL4-48" value="Cameras" style="rounded=1;whiteSpace=wrap;html=1;" vertex="1" parent="1">
          <mxGeometry x="20" y="690" width="120" height="60" as="geometry" />
        </mxCell>
      </root>
    </mxGraphModel>
  </diagram>
</mxfile>
